<svg width="24" height="19" viewBox="0 0 24 19" fill="none" xmlns="http://www.w3.org/2000/svg">
<rect width="24" height="19" fill="#E5E5E5"/>
<g clip-path="url(#clip0)">
<rect width="1440" height="10619" transform="translate(-350 -6885)" fill="white"/>
<path d="M-350 -849H1090V325H-350V-849Z" fill="#212B31"/>
<g clip-path="url(#clip1)">
<path d="M34.967 7.25279C38.602 20.3748 32.314 32.9998 21.295 32.9998C15.198 32.9998 12.595 29.4958 5.898 21.3368C-0.799999 13.1778 -10.35 24.5218 -12 7.25279C-10.614 -8.66021 6.652 -23.0642 14.668 -9.77421C21.966 2.32579 31.333 -5.86921 34.968 7.25279H34.967Z" fill="#FFDD76"/>
<path d="M11.493 0.515172H11.494C11.5535 0.496245 11.6175 0.496245 11.677 0.515172L22.313 3.90317L22.35 3.91517L22.389 3.92117C22.4653 3.93342 22.5345 3.97285 22.584 4.03217C22.6393 4.09848 22.67 4.18183 22.671 4.26817V4.28217L22.672 4.29717V13.3772L22.915 13.5232C23.262 13.7332 23.5 14.1192 23.5 14.5712C23.5 14.6982 23.435 14.9502 23.281 15.3112C23.136 15.6542 22.939 16.0352 22.736 16.3962C22.601 16.6382 22.466 16.8672 22.345 17.0652C22.225 16.8672 22.089 16.6382 21.953 16.3972C21.7525 16.0449 21.5706 15.6824 21.408 15.3112C21.255 14.9502 21.19 14.6982 21.19 14.5712C21.19 14.1192 21.428 13.7322 21.775 13.5232L22.017 13.3772V4.76217L21.365 4.96917L11.678 8.05617C11.6182 8.07531 11.5538 8.07531 11.494 8.05617L0.735 4.62817C0.667789 4.60573 0.609586 4.56225 0.569 4.50417C0.523752 4.4403 0.499451 4.36395 0.499451 4.28567C0.499451 4.20739 0.523752 4.13105 0.569 4.06717C0.609586 4.00909 0.667789 3.96561 0.735 3.94317L11.493 0.515172ZM5.464 13.2452V8.97917L10.702 10.6482C11.2766 10.8324 11.8944 10.8324 12.469 10.6482L17.707 8.97917V13.2452L17.582 13.2572C17.2 13.3002 16.659 13.3842 16.012 13.5522C14.796 13.8662 13.202 14.4772 11.586 15.6592C10.2567 14.6835 8.75451 13.9686 7.159 13.5522C6.60265 13.4068 6.036 13.3042 5.464 13.2452Z" fill="#63522B" stroke="#63522B"/>
</g>
</g>
<defs>
<clipPath id="clip0">
<rect width="1440" height="10619" fill="white" transform="translate(-350 -6885)"/>
</clipPath>
<clipPath id="clip1">
<rect width="48" height="48" fill="white" transform="translate(-12 -15)"/>
</clipPath>
</defs>
</svg>
